<?xml version="1.0" encoding="utf-8"?>
<!-- Generator: Adobe Illustrator 25.4.1, SVG Export Plug-In . SVG Version: 6.00 Build 0)  -->
<svg version="1.1" id="Capa_1" xmlns="http://www.w3.org/2000/svg" xmlns:xlink="http://www.w3.org/1999/xlink" x="0px" y="0px"
	 viewBox="150 226 800 630" style="enable-background:new 0 0 1080 1080;" xml:space="preserve">
<style type="text/css">
	.st0{fill:#507F70;}
	.st1{fill:#9BE2BF;}
	.st2{fill:none;stroke:#618E7B;stroke-width:1.6048;stroke-miterlimit:10;}
	.st3{fill:#FFFFFF;}
</style>
<g>
	<g>
		<polygon class="st0" points="158.4,236.2 158.4,611.1 361.7,611.1 395.9,550.3 239.5,550.3 239.5,445.2 354.7,445.2 354.7,386.3
			239.5,386.3 239.5,296.4 391.5,296.4 357.3,236.2 		"/>
		<path class="st1" d="M390.2,611.1l34.8-62.7c140,16.5,138.7-104.5,138.7-104.5l51.3,96.3c0,0-19.3,40.4-89.3,61.4
			C492.8,611.5,451,611.1,390.2,611.1z"/>
		<path class="st2" d="M200.8,588.3"/>
		<path class="st1" d="M390.2,236.2l31.7,60.8h30.8c48.4,0,80,19.2,102.3,62.2l137.4,248.2l147.6-256.5v260.3h81.7V236.2h-95
			l-126,231.2l-75.5-143.5c-28.4-53.9-84.3-87.7-145.2-87.7H390.2z"/>
	</g>
	<g>
		<g>
			<g>
				<path class="st3" d="M271,842v-129h9.6L176.8,842h-18.4V685h22.4v129h-9.6L275,685h18.4v157H271z"/>
			</g>
			<g>
				<path class="st3" d="M362.9,822.5h91.5V842H340.5V685h110.8v19.5h-88.4V822.5z M360.9,752.8h80.7v19.1h-80.7V752.8z"/>
			</g>
			<g>
				<path class="st3" d="M468.3,842l65.3-89v17.3L471.9,685h25.6l48.9,67.1l-10.1,0.2L585,685h24.4l-61.2,83.9v-16.1l65.3,89.3
					h-25.8l-52-71.5h9.9L494.1,842H468.3z"/>
			</g>
			<g>
				<path class="st3" d="M702.7,843.8c-20.6,0-36.9-5.9-48.7-17.7c-11.8-11.8-17.7-29.1-17.7-51.8V685h22.4v88.4
					c0,17.5,3.8,30.3,11.6,38.4c7.7,8.1,18.6,12.1,32.6,12.1c14.2,0,25.2-4,32.9-12.1c7.7-8.1,11.6-20.9,11.6-38.4V685h21.8v89.3
					c0,22.7-5.9,40-17.6,51.8C739.8,837.9,723.5,843.8,702.7,843.8z"/>
			</g>
			<g>
				<path class="st3" d="M860.8,843.8c-12,0-23.4-1.8-34.3-5.5c-10.9-3.7-19.5-8.4-25.8-14.2l8.3-17.5c6,5.2,13.6,9.6,22.9,13
					c9.3,3.4,18.9,5.2,28.9,5.2c9.1,0,16.5-1,22.2-3.1c5.7-2.1,9.9-5,12.6-8.6c2.7-3.7,4-7.8,4-12.4c0-5.4-1.8-9.7-5.3-13
					c-3.5-3.3-8.1-5.9-13.7-8c-5.6-2-11.8-3.8-18.5-5.3c-6.7-1.5-13.5-3.3-20.3-5.3c-6.8-2-13-4.6-18.6-7.7
					c-5.6-3.1-10.1-7.4-13.6-12.7c-3.4-5.3-5.2-12.1-5.2-20.5c0-8.1,2.1-15.5,6.4-22.3c4.3-6.8,10.8-12.3,19.7-16.4
					c8.9-4.1,20.2-6.2,34-6.2c9.1,0,18.2,1.2,27.1,3.6c9,2.4,16.7,5.8,23.3,10.3l-7.4,17.9c-6.7-4.5-13.8-7.7-21.3-9.8
					c-7.5-2-14.7-3-21.8-3c-8.8,0-16.1,1.1-21.8,3.4c-5.7,2.2-9.8,5.2-12.4,9c-2.6,3.7-3.9,7.9-3.9,12.6c0,5.5,1.8,9.9,5.3,13.2
					c3.5,3.3,8.1,5.9,13.7,7.8c5.6,1.9,11.8,3.7,18.5,5.3c6.7,1.6,13.5,3.3,20.3,5.3c6.8,1.9,13,4.5,18.6,7.6
					c5.6,3.1,10.1,7.3,13.6,12.6c3.4,5.2,5.2,12,5.2,20.2c0,7.9-2.2,15.3-6.5,22.1c-4.3,6.8-11,12.3-20.1,16.4
					C886,841.8,874.6,843.8,860.8,843.8z"/>
			</g>
		</g>
	</g>
</g>
</svg>
